<mxfile host="65bd71144e">
    <diagram id="UJdVG02fsfTL8Iua6NV-" name="APP Logic">
        <mxGraphModel dx="3032" dy="-648" grid="1" gridSize="10" guides="1" tooltips="1" connect="1" arrows="1" fold="1" page="0" pageScale="1" pageWidth="2339" pageHeight="3300" math="0" shadow="0">
            <root>
                <mxCell id="0"/>
                <mxCell id="1" parent="0"/>
                <mxCell id="20" style="edgeStyle=none;html=1;exitX=0;exitY=0.5;exitDx=0;exitDy=0;" parent="1" source="4" edge="1">
                    <mxGeometry relative="1" as="geometry">
                        <mxPoint x="-770" y="1790" as="targetPoint"/>
                    </mxGeometry>
                </mxCell>
                <mxCell id="4" value="displayAPI" style="whiteSpace=wrap;html=1;" parent="1" vertex="1">
                    <mxGeometry x="-750" y="1800" width="140" height="70" as="geometry"/>
                </mxCell>
                <mxCell id="18" value="" style="edgeStyle=none;html=1;" parent="1" source="5" target="4" edge="1">
                    <mxGeometry relative="1" as="geometry"/>
                </mxCell>
                <mxCell id="19" style="html=1;exitX=0;exitY=0.5;exitDx=0;exitDy=0;entryX=1;entryY=0.5;entryDx=0;entryDy=0;" parent="1" source="5" target="7" edge="1">
                    <mxGeometry relative="1" as="geometry"/>
                </mxCell>
                <mxCell id="5" value="dataAPI" style="whiteSpace=wrap;html=1;" parent="1" vertex="1">
                    <mxGeometry x="-750" y="1710" width="140" height="70" as="geometry"/>
                </mxCell>
                <mxCell id="10" value="" style="edgeStyle=none;html=1;" parent="1" source="6" target="5" edge="1">
                    <mxGeometry relative="1" as="geometry"/>
                </mxCell>
                <mxCell id="14" style="edgeStyle=none;html=1;exitX=0;exitY=0.75;exitDx=0;exitDy=0;entryX=1;entryY=0.5;entryDx=0;entryDy=0;" parent="1" source="6" target="4" edge="1">
                    <mxGeometry relative="1" as="geometry"/>
                </mxCell>
                <mxCell id="6" value="dictionary" style="whiteSpace=wrap;html=1;" parent="1" vertex="1">
                    <mxGeometry x="-550" y="1740" width="140" height="70" as="geometry"/>
                </mxCell>
                <mxCell id="21" style="edgeStyle=none;html=1;exitX=1;exitY=0.5;exitDx=0;exitDy=0;" parent="1" source="7" edge="1">
                    <mxGeometry relative="1" as="geometry">
                        <mxPoint x="-750" y="1745" as="targetPoint"/>
                    </mxGeometry>
                </mxCell>
                <mxCell id="22" style="edgeStyle=none;html=1;exitX=1;exitY=0.5;exitDx=0;exitDy=0;entryX=0;entryY=0.5;entryDx=0;entryDy=0;" parent="1" source="7" target="4" edge="1">
                    <mxGeometry relative="1" as="geometry"/>
                </mxCell>
                <mxCell id="23" style="edgeStyle=none;html=1;exitX=0;exitY=0.5;exitDx=0;exitDy=0;entryX=1;entryY=0.5;entryDx=0;entryDy=0;endArrow=classic;endFill=1;startArrow=classic;startFill=1;" parent="1" source="7" target="8" edge="1">
                    <mxGeometry relative="1" as="geometry"/>
                </mxCell>
                <mxCell id="7" value="components" style="whiteSpace=wrap;html=1;" parent="1" vertex="1">
                    <mxGeometry x="-910" y="1756" width="140" height="70" as="geometry"/>
                </mxCell>
                <mxCell id="T5XT0po9Vbufzdy-95-a-31" value="" style="edgeStyle=none;html=1;startArrow=classic;startFill=1;endArrow=classic;endFill=1;" edge="1" parent="1" source="8" target="T5XT0po9Vbufzdy-95-a-30">
                    <mxGeometry relative="1" as="geometry"/>
                </mxCell>
                <mxCell id="8" value="main" style="whiteSpace=wrap;html=1;" parent="1" vertex="1">
                    <mxGeometry x="-1090" y="1756" width="140" height="70" as="geometry"/>
                </mxCell>
                <mxCell id="T5XT0po9Vbufzdy-95-a-30" value="DOM" style="whiteSpace=wrap;html=1;" vertex="1" parent="1">
                    <mxGeometry x="-1268" y="1756" width="140" height="70" as="geometry"/>
                </mxCell>
            </root>
        </mxGraphModel>
    </diagram>
    <diagram id="s_kKsyNyxPXZ2Rxk8oQH" name="UI Logic">
        <mxGraphModel dx="5496" dy="3256" grid="1" gridSize="10" guides="1" tooltips="1" connect="1" arrows="1" fold="1" page="0" pageScale="1" pageWidth="827" pageHeight="1169" math="0" shadow="0">
            <root>
                <mxCell id="vE5BKZQ4KzmI6fFX7A4_-0"/>
                <mxCell id="vE5BKZQ4KzmI6fFX7A4_-1" parent="vE5BKZQ4KzmI6fFX7A4_-0"/>
                <mxCell id="vE5BKZQ4KzmI6fFX7A4_-4" style="edgeStyle=none;html=1;exitX=1;exitY=0.5;exitDx=0;exitDy=0;entryX=0;entryY=0.5;entryDx=0;entryDy=0;" parent="vE5BKZQ4KzmI6fFX7A4_-1" source="o1b_WZcqWQG1V9cHwgZN-30" target="o1b_WZcqWQG1V9cHwgZN-47" edge="1">
                    <mxGeometry relative="1" as="geometry">
                        <mxPoint x="30" y="282.5" as="sourcePoint"/>
                        <mxPoint x="100" y="282.5" as="targetPoint"/>
                    </mxGeometry>
                </mxCell>
                <mxCell id="vE5BKZQ4KzmI6fFX7A4_-6" value="onclick" style="edgeLabel;html=1;align=center;verticalAlign=middle;resizable=0;points=[];" parent="vE5BKZQ4KzmI6fFX7A4_-4" vertex="1" connectable="0">
                    <mxGeometry x="-0.1744" relative="1" as="geometry">
                        <mxPoint x="3" as="offset"/>
                    </mxGeometry>
                </mxCell>
                <mxCell id="vE5BKZQ4KzmI6fFX7A4_-24" value="" style="edgeStyle=none;shape=link;html=1;" parent="vE5BKZQ4KzmI6fFX7A4_-1" source="vE5BKZQ4KzmI6fFX7A4_-25" target="vE5BKZQ4KzmI6fFX7A4_-26" edge="1">
                    <mxGeometry relative="1" as="geometry"/>
                </mxCell>
                <mxCell id="o1b_WZcqWQG1V9cHwgZN-32" value="" style="edgeStyle=none;shape=link;html=1;" parent="vE5BKZQ4KzmI6fFX7A4_-1" source="vE5BKZQ4KzmI6fFX7A4_-25" target="o1b_WZcqWQG1V9cHwgZN-31" edge="1">
                    <mxGeometry relative="1" as="geometry"/>
                </mxCell>
                <mxCell id="vE5BKZQ4KzmI6fFX7A4_-25" value="Form (Read Only)" style="whiteSpace=wrap;html=1;" parent="vE5BKZQ4KzmI6fFX7A4_-1" vertex="1">
                    <mxGeometry x="-90" y="622.5" width="120" height="40" as="geometry"/>
                </mxCell>
                <mxCell id="vE5BKZQ4KzmI6fFX7A4_-29" value="" style="edgeStyle=none;shape=link;html=1;" parent="vE5BKZQ4KzmI6fFX7A4_-1" source="vE5BKZQ4KzmI6fFX7A4_-26" target="vE5BKZQ4KzmI6fFX7A4_-28" edge="1">
                    <mxGeometry relative="1" as="geometry"/>
                </mxCell>
                <mxCell id="vE5BKZQ4KzmI6fFX7A4_-26" value="Button: Delete" style="whiteSpace=wrap;html=1;" parent="vE5BKZQ4KzmI6fFX7A4_-1" vertex="1">
                    <mxGeometry x="-90" y="682.5" width="120" height="40" as="geometry"/>
                </mxCell>
                <mxCell id="vE5BKZQ4KzmI6fFX7A4_-28" value="Button: Edit" style="whiteSpace=wrap;html=1;" parent="vE5BKZQ4KzmI6fFX7A4_-1" vertex="1">
                    <mxGeometry x="-89" y="830" width="120" height="40" as="geometry"/>
                </mxCell>
                <mxCell id="vE5BKZQ4KzmI6fFX7A4_-38" value="" style="edgeStyle=none;html=1;exitX=1;exitY=0.5;exitDx=0;exitDy=0;entryX=0;entryY=0.5;entryDx=0;entryDy=0;" parent="vE5BKZQ4KzmI6fFX7A4_-1" source="vE5BKZQ4KzmI6fFX7A4_-26" target="o1b_WZcqWQG1V9cHwgZN-52" edge="1">
                    <mxGeometry relative="1" as="geometry">
                        <mxPoint x="31" y="701.6347150259068" as="sourcePoint"/>
                        <mxPoint x="104" y="700.2844311377245" as="targetPoint"/>
                    </mxGeometry>
                </mxCell>
                <mxCell id="vE5BKZQ4KzmI6fFX7A4_-39" value="onclick" style="edgeLabel;html=1;align=center;verticalAlign=middle;resizable=0;points=[];" parent="vE5BKZQ4KzmI6fFX7A4_-38" vertex="1" connectable="0">
                    <mxGeometry x="-0.5045" y="-2" relative="1" as="geometry">
                        <mxPoint x="16" y="-2" as="offset"/>
                    </mxGeometry>
                </mxCell>
                <mxCell id="vE5BKZQ4KzmI6fFX7A4_-40" value="" style="edgeStyle=none;html=1;exitX=1.006;exitY=0.555;exitDx=0;exitDy=0;exitPerimeter=0;entryX=0;entryY=0.5;entryDx=0;entryDy=0;" parent="vE5BKZQ4KzmI6fFX7A4_-1" source="vE5BKZQ4KzmI6fFX7A4_-28" target="qeABhqFJyIhbuZ9aIN4r-69" edge="1">
                    <mxGeometry relative="1" as="geometry">
                        <mxPoint x="33" y="852.2435233160622" as="sourcePoint"/>
                        <mxPoint x="123.15000000000009" y="852.4560000000001" as="targetPoint"/>
                    </mxGeometry>
                </mxCell>
                <mxCell id="vE5BKZQ4KzmI6fFX7A4_-41" value="onclick" style="edgeLabel;html=1;align=center;verticalAlign=middle;resizable=0;points=[];" parent="vE5BKZQ4KzmI6fFX7A4_-40" vertex="1" connectable="0">
                    <mxGeometry x="-0.5325" y="2" relative="1" as="geometry">
                        <mxPoint x="23" as="offset"/>
                    </mxGeometry>
                </mxCell>
                <mxCell id="o1b_WZcqWQG1V9cHwgZN-0" value="" style="edgeStyle=none;shape=link;html=1;exitX=0.5;exitY=1;exitDx=0;exitDy=0;" parent="vE5BKZQ4KzmI6fFX7A4_-1" source="o1b_WZcqWQG1V9cHwgZN-33" target="o1b_WZcqWQG1V9cHwgZN-5" edge="1">
                    <mxGeometry relative="1" as="geometry">
                        <mxPoint x="-1060" y="279.75" as="sourcePoint"/>
                    </mxGeometry>
                </mxCell>
                <mxCell id="o1b_WZcqWQG1V9cHwgZN-4" value="" style="edgeStyle=none;shape=link;html=1;" parent="vE5BKZQ4KzmI6fFX7A4_-1" source="o1b_WZcqWQG1V9cHwgZN-5" target="o1b_WZcqWQG1V9cHwgZN-6" edge="1">
                    <mxGeometry relative="1" as="geometry"/>
                </mxCell>
                <mxCell id="o1b_WZcqWQG1V9cHwgZN-5" value="Logo" style="whiteSpace=wrap;html=1;" parent="vE5BKZQ4KzmI6fFX7A4_-1" vertex="1">
                    <mxGeometry x="-1120" y="294.75" width="120" height="40" as="geometry"/>
                </mxCell>
                <mxCell id="o1b_WZcqWQG1V9cHwgZN-183" value="" style="edgeStyle=none;shape=link;html=1;fontSize=24;" parent="vE5BKZQ4KzmI6fFX7A4_-1" source="o1b_WZcqWQG1V9cHwgZN-6" target="o1b_WZcqWQG1V9cHwgZN-165" edge="1">
                    <mxGeometry relative="1" as="geometry"/>
                </mxCell>
                <mxCell id="o1b_WZcqWQG1V9cHwgZN-6" value="Navigation Menu" style="whiteSpace=wrap;html=1;" parent="vE5BKZQ4KzmI6fFX7A4_-1" vertex="1">
                    <mxGeometry x="-1120" y="354.75" width="120" height="40" as="geometry"/>
                </mxCell>
                <mxCell id="o1b_WZcqWQG1V9cHwgZN-9" value="" style="edgeStyle=none;html=1;exitX=1;exitY=0.5;exitDx=0;exitDy=0;entryX=0;entryY=0.558;entryDx=0;entryDy=0;entryPerimeter=0;" parent="vE5BKZQ4KzmI6fFX7A4_-1" source="o1b_WZcqWQG1V9cHwgZN-5" target="o1b_WZcqWQG1V9cHwgZN-54" edge="1">
                    <mxGeometry relative="1" as="geometry">
                        <mxPoint x="-999" y="313.88471502590664" as="sourcePoint"/>
                        <mxPoint x="-934.5" y="313.78297244094506" as="targetPoint"/>
                    </mxGeometry>
                </mxCell>
                <mxCell id="o1b_WZcqWQG1V9cHwgZN-10" value="link" style="edgeLabel;html=1;align=center;verticalAlign=middle;resizable=0;points=[];" parent="o1b_WZcqWQG1V9cHwgZN-9" vertex="1" connectable="0">
                    <mxGeometry x="-0.5045" y="-2" relative="1" as="geometry">
                        <mxPoint x="16" y="-2" as="offset"/>
                    </mxGeometry>
                </mxCell>
                <mxCell id="o1b_WZcqWQG1V9cHwgZN-60" value="" style="edgeStyle=none;shape=link;html=1;exitX=0.5;exitY=1;exitDx=0;exitDy=0;" parent="vE5BKZQ4KzmI6fFX7A4_-1" source="o1b_WZcqWQG1V9cHwgZN-6" target="o1b_WZcqWQG1V9cHwgZN-59" edge="1">
                    <mxGeometry relative="1" as="geometry">
                        <mxPoint x="-1060" y="514.75" as="sourcePoint"/>
                    </mxGeometry>
                </mxCell>
                <mxCell id="o1b_WZcqWQG1V9cHwgZN-30" value="Card / Button&lt;br&gt;'Create New'" style="shape=process;whiteSpace=wrap;html=1;backgroundOutline=1;" parent="vE5BKZQ4KzmI6fFX7A4_-1" vertex="1">
                    <mxGeometry x="-90" y="252.5" width="120" height="60" as="geometry"/>
                </mxCell>
                <mxCell id="o1b_WZcqWQG1V9cHwgZN-31" value="Card&lt;br&gt;'Book Display'" style="shape=process;whiteSpace=wrap;html=1;backgroundOutline=1;" parent="vE5BKZQ4KzmI6fFX7A4_-1" vertex="1">
                    <mxGeometry x="-90" y="542.5" width="120" height="60" as="geometry"/>
                </mxCell>
                <mxCell id="o1b_WZcqWQG1V9cHwgZN-33" value="Navbar" style="shape=process;whiteSpace=wrap;html=1;backgroundOutline=1;" parent="vE5BKZQ4KzmI6fFX7A4_-1" vertex="1">
                    <mxGeometry x="-1120" y="214.75" width="120" height="60" as="geometry"/>
                </mxCell>
                <mxCell id="o1b_WZcqWQG1V9cHwgZN-34" value="Modal&lt;br&gt;'Add Book'" style="shape=process;whiteSpace=wrap;html=1;backgroundOutline=1;" parent="vE5BKZQ4KzmI6fFX7A4_-1" vertex="1">
                    <mxGeometry x="631" y="252.5" width="120" height="60" as="geometry"/>
                </mxCell>
                <mxCell id="qeABhqFJyIhbuZ9aIN4r-41" style="edgeStyle=none;html=1;exitX=1;exitY=0.5;exitDx=0;exitDy=0;entryX=0;entryY=0.5;entryDx=0;entryDy=0;fontSize=24;" parent="vE5BKZQ4KzmI6fFX7A4_-1" source="o1b_WZcqWQG1V9cHwgZN-47" target="o1b_WZcqWQG1V9cHwgZN-34" edge="1">
                    <mxGeometry relative="1" as="geometry"/>
                </mxCell>
                <mxCell id="qeABhqFJyIhbuZ9aIN4r-42" value="Related" style="edgeLabel;html=1;align=center;verticalAlign=middle;resizable=0;points=[];fontSize=24;" parent="qeABhqFJyIhbuZ9aIN4r-41" vertex="1" connectable="0">
                    <mxGeometry x="-0.123" y="2" relative="1" as="geometry">
                        <mxPoint x="13" as="offset"/>
                    </mxGeometry>
                </mxCell>
                <mxCell id="o1b_WZcqWQG1V9cHwgZN-47" value="Show Modal - Add ()" style="shape=step;perimeter=stepPerimeter;whiteSpace=wrap;html=1;fixedSize=1;" parent="vE5BKZQ4KzmI6fFX7A4_-1" vertex="1">
                    <mxGeometry x="85" y="265" width="185" height="35" as="geometry"/>
                </mxCell>
                <mxCell id="o1b_WZcqWQG1V9cHwgZN-52" value="Delete Book ()" style="shape=step;perimeter=stepPerimeter;whiteSpace=wrap;html=1;fixedSize=1;" parent="vE5BKZQ4KzmI6fFX7A4_-1" vertex="1">
                    <mxGeometry x="104" y="685.5" width="150" height="34" as="geometry"/>
                </mxCell>
                <mxCell id="o1b_WZcqWQG1V9cHwgZN-54" value="Homepage" style="whiteSpace=wrap;html=1;" parent="vE5BKZQ4KzmI6fFX7A4_-1" vertex="1">
                    <mxGeometry x="-929" y="291.75" width="120" height="40" as="geometry"/>
                </mxCell>
                <mxCell id="o1b_WZcqWQG1V9cHwgZN-64" value="" style="edgeStyle=none;shape=link;html=1;" parent="vE5BKZQ4KzmI6fFX7A4_-1" source="o1b_WZcqWQG1V9cHwgZN-59" target="o1b_WZcqWQG1V9cHwgZN-63" edge="1">
                    <mxGeometry relative="1" as="geometry"/>
                </mxCell>
                <mxCell id="o1b_WZcqWQG1V9cHwgZN-59" value="Form&lt;br&gt;'Search'" style="whiteSpace=wrap;html=1;" parent="vE5BKZQ4KzmI6fFX7A4_-1" vertex="1">
                    <mxGeometry x="-1120" y="494.75" width="120" height="40" as="geometry"/>
                </mxCell>
                <mxCell id="o1b_WZcqWQG1V9cHwgZN-66" value="" style="edgeStyle=none;shape=link;html=1;" parent="vE5BKZQ4KzmI6fFX7A4_-1" source="o1b_WZcqWQG1V9cHwgZN-63" target="o1b_WZcqWQG1V9cHwgZN-65" edge="1">
                    <mxGeometry relative="1" as="geometry"/>
                </mxCell>
                <mxCell id="o1b_WZcqWQG1V9cHwgZN-63" value="Text Input&lt;br&gt;'Search Terms'" style="whiteSpace=wrap;html=1;" parent="vE5BKZQ4KzmI6fFX7A4_-1" vertex="1">
                    <mxGeometry x="-929" y="494.75" width="120" height="40" as="geometry"/>
                </mxCell>
                <mxCell id="o1b_WZcqWQG1V9cHwgZN-68" value="" style="edgeStyle=none;shape=link;html=1;" parent="vE5BKZQ4KzmI6fFX7A4_-1" source="o1b_WZcqWQG1V9cHwgZN-65" target="o1b_WZcqWQG1V9cHwgZN-67" edge="1">
                    <mxGeometry relative="1" as="geometry"/>
                </mxCell>
                <mxCell id="o1b_WZcqWQG1V9cHwgZN-65" value="List Input&lt;br&gt;'Field Type'" style="whiteSpace=wrap;html=1;" parent="vE5BKZQ4KzmI6fFX7A4_-1" vertex="1">
                    <mxGeometry x="-929" y="544.75" width="120" height="40" as="geometry"/>
                </mxCell>
                <mxCell id="o1b_WZcqWQG1V9cHwgZN-67" value="Button&lt;br&gt;'Search Icon'" style="whiteSpace=wrap;html=1;" parent="vE5BKZQ4KzmI6fFX7A4_-1" vertex="1">
                    <mxGeometry x="-929" y="594.75" width="120" height="40" as="geometry"/>
                </mxCell>
                <mxCell id="o1b_WZcqWQG1V9cHwgZN-69" value="" style="edgeStyle=none;html=1;exitX=1;exitY=0.5;exitDx=0;exitDy=0;entryX=0;entryY=0.5;entryDx=0;entryDy=0;" parent="vE5BKZQ4KzmI6fFX7A4_-1" source="o1b_WZcqWQG1V9cHwgZN-67" target="o1b_WZcqWQG1V9cHwgZN-143" edge="1">
                    <mxGeometry relative="1" as="geometry">
                        <mxPoint x="-798.0000000000002" y="613.95" as="sourcePoint"/>
                        <mxPoint x="-707.5700000000002" y="615.2059999999999" as="targetPoint"/>
                    </mxGeometry>
                </mxCell>
                <mxCell id="o1b_WZcqWQG1V9cHwgZN-70" value="onsubmit" style="edgeLabel;html=1;align=center;verticalAlign=middle;resizable=0;points=[];" parent="o1b_WZcqWQG1V9cHwgZN-69" vertex="1" connectable="0">
                    <mxGeometry x="-0.5325" y="2" relative="1" as="geometry">
                        <mxPoint x="14" as="offset"/>
                    </mxGeometry>
                </mxCell>
                <mxCell id="o1b_WZcqWQG1V9cHwgZN-79" value="" style="edgeStyle=none;shape=link;html=1;" parent="vE5BKZQ4KzmI6fFX7A4_-1" source="o1b_WZcqWQG1V9cHwgZN-77" target="o1b_WZcqWQG1V9cHwgZN-34" edge="1">
                    <mxGeometry relative="1" as="geometry"/>
                </mxCell>
                <mxCell id="qeABhqFJyIhbuZ9aIN4r-76" value="" style="edgeStyle=none;shape=link;html=1;fontSize=48;" parent="vE5BKZQ4KzmI6fFX7A4_-1" source="o1b_WZcqWQG1V9cHwgZN-77" target="qeABhqFJyIhbuZ9aIN4r-75" edge="1">
                    <mxGeometry relative="1" as="geometry"/>
                </mxCell>
                <mxCell id="o1b_WZcqWQG1V9cHwgZN-77" value="Form &lt;br&gt;(Default Book Data)" style="whiteSpace=wrap;html=1;" parent="vE5BKZQ4KzmI6fFX7A4_-1" vertex="1">
                    <mxGeometry x="631" y="334.5" width="120" height="40" as="geometry"/>
                </mxCell>
                <mxCell id="o1b_WZcqWQG1V9cHwgZN-91" value="Modal&lt;br&gt;'Edit Book'" style="shape=process;whiteSpace=wrap;html=1;backgroundOutline=1;" parent="vE5BKZQ4KzmI6fFX7A4_-1" vertex="1">
                    <mxGeometry x="646" y="874" width="120" height="60" as="geometry"/>
                </mxCell>
                <mxCell id="o1b_WZcqWQG1V9cHwgZN-96" value="" style="edgeStyle=none;shape=link;html=1;" parent="vE5BKZQ4KzmI6fFX7A4_-1" source="o1b_WZcqWQG1V9cHwgZN-97" target="o1b_WZcqWQG1V9cHwgZN-91" edge="1">
                    <mxGeometry relative="1" as="geometry"/>
                </mxCell>
                <mxCell id="qeABhqFJyIhbuZ9aIN4r-103" value="" style="edgeStyle=none;shape=link;html=1;fontSize=48;" parent="vE5BKZQ4KzmI6fFX7A4_-1" source="o1b_WZcqWQG1V9cHwgZN-97" target="qeABhqFJyIhbuZ9aIN4r-102" edge="1">
                    <mxGeometry relative="1" as="geometry"/>
                </mxCell>
                <mxCell id="o1b_WZcqWQG1V9cHwgZN-97" value="Form (Book Data)" style="whiteSpace=wrap;html=1;" parent="vE5BKZQ4KzmI6fFX7A4_-1" vertex="1">
                    <mxGeometry x="646" y="956" width="120" height="40" as="geometry"/>
                </mxCell>
                <mxCell id="qeABhqFJyIhbuZ9aIN4r-39" style="edgeStyle=none;html=1;exitX=1;exitY=0.5;exitDx=0;exitDy=0;entryX=0;entryY=0.5;entryDx=0;entryDy=0;fontSize=24;" parent="vE5BKZQ4KzmI6fFX7A4_-1" source="qeABhqFJyIhbuZ9aIN4r-65" target="o1b_WZcqWQG1V9cHwgZN-91" edge="1">
                    <mxGeometry relative="1" as="geometry">
                        <mxPoint x="265" y="905" as="sourcePoint"/>
                    </mxGeometry>
                </mxCell>
                <mxCell id="qeABhqFJyIhbuZ9aIN4r-40" value="Related" style="edgeLabel;html=1;align=center;verticalAlign=middle;resizable=0;points=[];fontSize=24;" parent="qeABhqFJyIhbuZ9aIN4r-39" vertex="1" connectable="0">
                    <mxGeometry x="-0.2172" relative="1" as="geometry">
                        <mxPoint x="34" y="2" as="offset"/>
                    </mxGeometry>
                </mxCell>
                <mxCell id="o1b_WZcqWQG1V9cHwgZN-142" value="&lt;font style=&quot;font-size: 72px&quot;&gt;&lt;b&gt;HOME PAGE&lt;/b&gt;&lt;/font&gt;" style="text;html=1;align=center;verticalAlign=middle;resizable=0;points=[];autosize=1;strokeColor=none;fillColor=none;" parent="vE5BKZQ4KzmI6fFX7A4_-1" vertex="1">
                    <mxGeometry x="-487" y="-80" width="450" height="40" as="geometry"/>
                </mxCell>
                <mxCell id="o1b_WZcqWQG1V9cHwgZN-155" style="edgeStyle=none;shape=link;html=1;exitX=1;exitY=0.5;exitDx=0;exitDy=0;entryX=0;entryY=0.5;entryDx=0;entryDy=0;fontSize=24;" parent="vE5BKZQ4KzmI6fFX7A4_-1" source="o1b_WZcqWQG1V9cHwgZN-143" target="o1b_WZcqWQG1V9cHwgZN-146" edge="1">
                    <mxGeometry relative="1" as="geometry"/>
                </mxCell>
                <mxCell id="o1b_WZcqWQG1V9cHwgZN-143" value="Show Search Results ()" style="shape=step;perimeter=stepPerimeter;whiteSpace=wrap;html=1;fixedSize=1;" parent="vE5BKZQ4KzmI6fFX7A4_-1" vertex="1">
                    <mxGeometry x="-731" y="597.75" width="181" height="34" as="geometry"/>
                </mxCell>
                <mxCell id="o1b_WZcqWQG1V9cHwgZN-144" value="" style="edgeStyle=none;shape=link;html=1;" parent="vE5BKZQ4KzmI6fFX7A4_-1" source="o1b_WZcqWQG1V9cHwgZN-146" target="o1b_WZcqWQG1V9cHwgZN-147" edge="1">
                    <mxGeometry relative="1" as="geometry"/>
                </mxCell>
                <mxCell id="o1b_WZcqWQG1V9cHwgZN-145" value="" style="edgeStyle=none;shape=link;html=1;" parent="vE5BKZQ4KzmI6fFX7A4_-1" source="o1b_WZcqWQG1V9cHwgZN-146" target="o1b_WZcqWQG1V9cHwgZN-149" edge="1">
                    <mxGeometry relative="1" as="geometry"/>
                </mxCell>
                <mxCell id="o1b_WZcqWQG1V9cHwgZN-146" value="dataAPI" style="shape=step;perimeter=stepPerimeter;whiteSpace=wrap;html=1;fixedSize=1;" parent="vE5BKZQ4KzmI6fFX7A4_-1" vertex="1">
                    <mxGeometry x="-550" y="597.75" width="150" height="34" as="geometry"/>
                </mxCell>
                <mxCell id="o1b_WZcqWQG1V9cHwgZN-147" value="Search Books ()" style="shape=step;perimeter=stepPerimeter;whiteSpace=wrap;html=1;fixedSize=1;" parent="vE5BKZQ4KzmI6fFX7A4_-1" vertex="1">
                    <mxGeometry x="-400" y="597.75" width="150" height="34" as="geometry"/>
                </mxCell>
                <mxCell id="o1b_WZcqWQG1V9cHwgZN-148" value="" style="edgeStyle=none;shape=link;html=1;" parent="vE5BKZQ4KzmI6fFX7A4_-1" source="o1b_WZcqWQG1V9cHwgZN-149" target="o1b_WZcqWQG1V9cHwgZN-151" edge="1">
                    <mxGeometry relative="1" as="geometry"/>
                </mxCell>
                <mxCell id="o1b_WZcqWQG1V9cHwgZN-149" value="displayAPI" style="shape=step;perimeter=stepPerimeter;whiteSpace=wrap;html=1;fixedSize=1;" parent="vE5BKZQ4KzmI6fFX7A4_-1" vertex="1">
                    <mxGeometry x="-550" y="643.75" width="150" height="34" as="geometry"/>
                </mxCell>
                <mxCell id="o1b_WZcqWQG1V9cHwgZN-150" value="" style="edgeStyle=none;shape=link;html=1;" parent="vE5BKZQ4KzmI6fFX7A4_-1" source="o1b_WZcqWQG1V9cHwgZN-151" target="o1b_WZcqWQG1V9cHwgZN-152" edge="1">
                    <mxGeometry relative="1" as="geometry"/>
                </mxCell>
                <mxCell id="o1b_WZcqWQG1V9cHwgZN-151" value="Add Book Display ()" style="shape=step;perimeter=stepPerimeter;whiteSpace=wrap;html=1;fixedSize=1;" parent="vE5BKZQ4KzmI6fFX7A4_-1" vertex="1">
                    <mxGeometry x="-400" y="644.75" width="150" height="34" as="geometry"/>
                </mxCell>
                <mxCell id="o1b_WZcqWQG1V9cHwgZN-152" value="Update Display &lt;br&gt;Container&amp;nbsp; ()" style="shape=step;perimeter=stepPerimeter;whiteSpace=wrap;html=1;fixedSize=1;" parent="vE5BKZQ4KzmI6fFX7A4_-1" vertex="1">
                    <mxGeometry x="-400" y="691.25" width="150" height="34" as="geometry"/>
                </mxCell>
                <mxCell id="o1b_WZcqWQG1V9cHwgZN-175" value="" style="edgeStyle=none;shape=link;html=1;fontSize=24;" parent="vE5BKZQ4KzmI6fFX7A4_-1" source="o1b_WZcqWQG1V9cHwgZN-165" target="o1b_WZcqWQG1V9cHwgZN-171" edge="1">
                    <mxGeometry relative="1" as="geometry"/>
                </mxCell>
                <mxCell id="o1b_WZcqWQG1V9cHwgZN-165" value="Personal Library" style="whiteSpace=wrap;html=1;" parent="vE5BKZQ4KzmI6fFX7A4_-1" vertex="1">
                    <mxGeometry x="-927" y="354.75" width="120" height="40" as="geometry"/>
                </mxCell>
                <mxCell id="o1b_WZcqWQG1V9cHwgZN-168" value="[ Homepage ]" style="whiteSpace=wrap;html=1;" parent="vE5BKZQ4KzmI6fFX7A4_-1" vertex="1">
                    <mxGeometry x="-927" y="431.75" width="120" height="40" as="geometry"/>
                </mxCell>
                <mxCell id="o1b_WZcqWQG1V9cHwgZN-169" value="" style="edgeStyle=none;html=1;exitX=0.5;exitY=1;exitDx=0;exitDy=0;fontStyle=1;entryX=0.5;entryY=0;entryDx=0;entryDy=0;" parent="vE5BKZQ4KzmI6fFX7A4_-1" source="o1b_WZcqWQG1V9cHwgZN-165" target="o1b_WZcqWQG1V9cHwgZN-168" edge="1">
                    <mxGeometry relative="1" as="geometry">
                        <mxPoint x="-806.2799999999999" y="376.94999999999993" as="sourcePoint"/>
                        <mxPoint x="-736" y="376.75" as="targetPoint"/>
                    </mxGeometry>
                </mxCell>
                <mxCell id="o1b_WZcqWQG1V9cHwgZN-170" value="link" style="edgeLabel;html=1;align=center;verticalAlign=middle;resizable=0;points=[];" parent="o1b_WZcqWQG1V9cHwgZN-169" vertex="1" connectable="0">
                    <mxGeometry x="-0.5325" y="2" relative="1" as="geometry">
                        <mxPoint x="-2" y="9" as="offset"/>
                    </mxGeometry>
                </mxCell>
                <mxCell id="o1b_WZcqWQG1V9cHwgZN-177" value="" style="edgeStyle=none;shape=link;html=1;fontSize=24;" parent="vE5BKZQ4KzmI6fFX7A4_-1" source="o1b_WZcqWQG1V9cHwgZN-171" target="o1b_WZcqWQG1V9cHwgZN-176" edge="1">
                    <mxGeometry relative="1" as="geometry"/>
                </mxCell>
                <mxCell id="o1b_WZcqWQG1V9cHwgZN-171" value="Feedback" style="whiteSpace=wrap;html=1;" parent="vE5BKZQ4KzmI6fFX7A4_-1" vertex="1">
                    <mxGeometry x="-767" y="354.75" width="120" height="40" as="geometry"/>
                </mxCell>
                <mxCell id="o1b_WZcqWQG1V9cHwgZN-172" value="Contact Page" style="whiteSpace=wrap;html=1;" parent="vE5BKZQ4KzmI6fFX7A4_-1" vertex="1">
                    <mxGeometry x="-767" y="431.75" width="120" height="40" as="geometry"/>
                </mxCell>
                <mxCell id="o1b_WZcqWQG1V9cHwgZN-173" value="" style="edgeStyle=none;html=1;exitX=0.5;exitY=1;exitDx=0;exitDy=0;fontStyle=1;entryX=0.5;entryY=0;entryDx=0;entryDy=0;" parent="vE5BKZQ4KzmI6fFX7A4_-1" source="o1b_WZcqWQG1V9cHwgZN-171" target="o1b_WZcqWQG1V9cHwgZN-172" edge="1">
                    <mxGeometry relative="1" as="geometry">
                        <mxPoint x="-646.2799999999999" y="376.94999999999993" as="sourcePoint"/>
                        <mxPoint x="-576" y="376.75" as="targetPoint"/>
                    </mxGeometry>
                </mxCell>
                <mxCell id="o1b_WZcqWQG1V9cHwgZN-174" value="link" style="edgeLabel;html=1;align=center;verticalAlign=middle;resizable=0;points=[];" parent="o1b_WZcqWQG1V9cHwgZN-173" vertex="1" connectable="0">
                    <mxGeometry x="-0.5325" y="2" relative="1" as="geometry">
                        <mxPoint x="-2" y="9" as="offset"/>
                    </mxGeometry>
                </mxCell>
                <mxCell id="o1b_WZcqWQG1V9cHwgZN-176" value="About" style="whiteSpace=wrap;html=1;" parent="vE5BKZQ4KzmI6fFX7A4_-1" vertex="1">
                    <mxGeometry x="-607" y="354.75" width="120" height="40" as="geometry"/>
                </mxCell>
                <mxCell id="o1b_WZcqWQG1V9cHwgZN-180" value="About Page" style="whiteSpace=wrap;html=1;" parent="vE5BKZQ4KzmI6fFX7A4_-1" vertex="1">
                    <mxGeometry x="-607" y="431.75" width="120" height="40" as="geometry"/>
                </mxCell>
                <mxCell id="o1b_WZcqWQG1V9cHwgZN-181" value="" style="edgeStyle=none;html=1;fontStyle=1;entryX=0.5;entryY=0;entryDx=0;entryDy=0;" parent="vE5BKZQ4KzmI6fFX7A4_-1" target="o1b_WZcqWQG1V9cHwgZN-180" edge="1">
                    <mxGeometry relative="1" as="geometry">
                        <mxPoint x="-547" y="394.75" as="sourcePoint"/>
                        <mxPoint x="-416" y="376.75" as="targetPoint"/>
                    </mxGeometry>
                </mxCell>
                <mxCell id="o1b_WZcqWQG1V9cHwgZN-182" value="link" style="edgeLabel;html=1;align=center;verticalAlign=middle;resizable=0;points=[];" parent="o1b_WZcqWQG1V9cHwgZN-181" vertex="1" connectable="0">
                    <mxGeometry x="-0.5325" y="2" relative="1" as="geometry">
                        <mxPoint x="-2" y="9" as="offset"/>
                    </mxGeometry>
                </mxCell>
                <mxCell id="qeABhqFJyIhbuZ9aIN4r-27" value="" style="edgeStyle=none;shape=link;html=1;exitX=1;exitY=0.5;exitDx=0;exitDy=0;" parent="vE5BKZQ4KzmI6fFX7A4_-1" source="o1b_WZcqWQG1V9cHwgZN-52" target="qeABhqFJyIhbuZ9aIN4r-30" edge="1">
                    <mxGeometry relative="1" as="geometry">
                        <mxPoint x="272" y="702.5000000000005" as="sourcePoint"/>
                    </mxGeometry>
                </mxCell>
                <mxCell id="qeABhqFJyIhbuZ9aIN4r-28" value="" style="edgeStyle=none;shape=link;html=1;" parent="vE5BKZQ4KzmI6fFX7A4_-1" source="qeABhqFJyIhbuZ9aIN4r-30" target="qeABhqFJyIhbuZ9aIN4r-32" edge="1">
                    <mxGeometry relative="1" as="geometry"/>
                </mxCell>
                <mxCell id="qeABhqFJyIhbuZ9aIN4r-29" value="" style="edgeStyle=none;shape=link;html=1;" parent="vE5BKZQ4KzmI6fFX7A4_-1" source="qeABhqFJyIhbuZ9aIN4r-30" target="qeABhqFJyIhbuZ9aIN4r-33" edge="1">
                    <mxGeometry relative="1" as="geometry"/>
                </mxCell>
                <mxCell id="qeABhqFJyIhbuZ9aIN4r-30" value="dataAPI" style="shape=step;perimeter=stepPerimeter;whiteSpace=wrap;html=1;fixedSize=1;" parent="vE5BKZQ4KzmI6fFX7A4_-1" vertex="1">
                    <mxGeometry x="251.5" y="685.5" width="106" height="34" as="geometry"/>
                </mxCell>
                <mxCell id="qeABhqFJyIhbuZ9aIN4r-31" value="" style="edgeStyle=none;shape=link;html=1;" parent="vE5BKZQ4KzmI6fFX7A4_-1" source="qeABhqFJyIhbuZ9aIN4r-32" target="qeABhqFJyIhbuZ9aIN4r-34" edge="1">
                    <mxGeometry relative="1" as="geometry"/>
                </mxCell>
                <mxCell id="qeABhqFJyIhbuZ9aIN4r-32" value="displayAPI" style="shape=step;perimeter=stepPerimeter;whiteSpace=wrap;html=1;fixedSize=1;" parent="vE5BKZQ4KzmI6fFX7A4_-1" vertex="1">
                    <mxGeometry x="251.5" y="735" width="106" height="34" as="geometry"/>
                </mxCell>
                <mxCell id="qeABhqFJyIhbuZ9aIN4r-33" value="Delete Book Data ()" style="shape=step;perimeter=stepPerimeter;whiteSpace=wrap;html=1;fixedSize=1;" parent="vE5BKZQ4KzmI6fFX7A4_-1" vertex="1">
                    <mxGeometry x="357.5" y="685.5" width="170" height="34" as="geometry"/>
                </mxCell>
                <mxCell id="qeABhqFJyIhbuZ9aIN4r-63" value="" style="edgeStyle=none;shape=link;html=1;fontSize=48;" parent="vE5BKZQ4KzmI6fFX7A4_-1" source="qeABhqFJyIhbuZ9aIN4r-34" target="qeABhqFJyIhbuZ9aIN4r-62" edge="1">
                    <mxGeometry relative="1" as="geometry"/>
                </mxCell>
                <mxCell id="qeABhqFJyIhbuZ9aIN4r-34" value="Delete Book Display ()" style="shape=step;perimeter=stepPerimeter;whiteSpace=wrap;html=1;fixedSize=1;" parent="vE5BKZQ4KzmI6fFX7A4_-1" vertex="1">
                    <mxGeometry x="357.5" y="735" width="171" height="34" as="geometry"/>
                </mxCell>
                <mxCell id="qeABhqFJyIhbuZ9aIN4r-46" value="&lt;font style=&quot;font-size: 48px&quot;&gt;&lt;b&gt;Header&lt;/b&gt;&lt;/font&gt;" style="text;html=1;align=center;verticalAlign=middle;resizable=0;points=[];autosize=1;strokeColor=none;fillColor=none;" parent="vE5BKZQ4KzmI6fFX7A4_-1" vertex="1">
                    <mxGeometry x="-807" y="132.5" width="180" height="30" as="geometry"/>
                </mxCell>
                <mxCell id="qeABhqFJyIhbuZ9aIN4r-47" value="&lt;span style=&quot;font-size: 48px&quot;&gt;&lt;b&gt;Display Container&lt;/b&gt;&lt;/span&gt;" style="text;html=1;align=center;verticalAlign=middle;resizable=0;points=[];autosize=1;strokeColor=none;fillColor=none;" parent="vE5BKZQ4KzmI6fFX7A4_-1" vertex="1">
                    <mxGeometry x="195" y="150" width="420" height="30" as="geometry"/>
                </mxCell>
                <mxCell id="qeABhqFJyIhbuZ9aIN4r-62" value="Update Display &lt;br&gt;Container ()" style="shape=step;perimeter=stepPerimeter;whiteSpace=wrap;html=1;fixedSize=1;" parent="vE5BKZQ4KzmI6fFX7A4_-1" vertex="1">
                    <mxGeometry x="357.5" y="780" width="171" height="34" as="geometry"/>
                </mxCell>
                <mxCell id="qeABhqFJyIhbuZ9aIN4r-65" value="Show Modal &lt;br&gt;'Edit Book' ()" style="shape=step;perimeter=stepPerimeter;whiteSpace=wrap;html=1;fixedSize=1;" parent="vE5BKZQ4KzmI6fFX7A4_-1" vertex="1">
                    <mxGeometry x="120" y="887" width="150" height="34" as="geometry"/>
                </mxCell>
                <mxCell id="qeABhqFJyIhbuZ9aIN4r-64" value="" style="edgeStyle=none;shape=link;html=1;fontSize=48;entryX=0.5;entryY=0;entryDx=0;entryDy=0;" parent="vE5BKZQ4KzmI6fFX7A4_-1" target="qeABhqFJyIhbuZ9aIN4r-65" edge="1">
                    <mxGeometry relative="1" as="geometry">
                        <mxPoint x="178.38541666666652" y="884" as="targetPoint"/>
                    </mxGeometry>
                </mxCell>
                <mxCell id="qeABhqFJyIhbuZ9aIN4r-74" value="" style="edgeStyle=none;shape=link;html=1;fontSize=48;" parent="vE5BKZQ4KzmI6fFX7A4_-1" source="qeABhqFJyIhbuZ9aIN4r-69" target="qeABhqFJyIhbuZ9aIN4r-65" edge="1">
                    <mxGeometry relative="1" as="geometry"/>
                </mxCell>
                <mxCell id="qeABhqFJyIhbuZ9aIN4r-69" value="Update Modal&lt;br&gt;'Edit Book' (id)" style="shape=step;perimeter=stepPerimeter;whiteSpace=wrap;html=1;fixedSize=1;" parent="vE5BKZQ4KzmI6fFX7A4_-1" vertex="1">
                    <mxGeometry x="120" y="836" width="150" height="34" as="geometry"/>
                </mxCell>
                <mxCell id="qeABhqFJyIhbuZ9aIN4r-70" value="" style="edgeStyle=none;shape=link;html=1;" parent="vE5BKZQ4KzmI6fFX7A4_-1" target="qeABhqFJyIhbuZ9aIN4r-72" edge="1">
                    <mxGeometry relative="1" as="geometry">
                        <mxPoint x="268" y="853.5" as="sourcePoint"/>
                    </mxGeometry>
                </mxCell>
                <mxCell id="qeABhqFJyIhbuZ9aIN4r-71" value="" style="edgeStyle=none;shape=link;html=1;entryX=0;entryY=0.5;entryDx=0;entryDy=0;" parent="vE5BKZQ4KzmI6fFX7A4_-1" source="qeABhqFJyIhbuZ9aIN4r-72" target="qeABhqFJyIhbuZ9aIN4r-73" edge="1">
                    <mxGeometry relative="1" as="geometry">
                        <mxPoint x="396" y="853" as="targetPoint"/>
                    </mxGeometry>
                </mxCell>
                <mxCell id="qeABhqFJyIhbuZ9aIN4r-72" value="dataAPI" style="shape=step;perimeter=stepPerimeter;whiteSpace=wrap;html=1;fixedSize=1;" parent="vE5BKZQ4KzmI6fFX7A4_-1" vertex="1">
                    <mxGeometry x="270" y="836" width="106" height="34" as="geometry"/>
                </mxCell>
                <mxCell id="qeABhqFJyIhbuZ9aIN4r-73" value="Read Book Data ()" style="shape=step;perimeter=stepPerimeter;whiteSpace=wrap;html=1;fixedSize=1;" parent="vE5BKZQ4KzmI6fFX7A4_-1" vertex="1">
                    <mxGeometry x="377" y="836" width="170" height="34" as="geometry"/>
                </mxCell>
                <mxCell id="qeABhqFJyIhbuZ9aIN4r-101" value="" style="edgeStyle=none;shape=link;html=1;fontSize=48;" parent="vE5BKZQ4KzmI6fFX7A4_-1" source="qeABhqFJyIhbuZ9aIN4r-75" target="qeABhqFJyIhbuZ9aIN4r-88" edge="1">
                    <mxGeometry relative="1" as="geometry"/>
                </mxCell>
                <mxCell id="qeABhqFJyIhbuZ9aIN4r-75" value="Action Buttons" style="whiteSpace=wrap;html=1;" parent="vE5BKZQ4KzmI6fFX7A4_-1" vertex="1">
                    <mxGeometry x="631" y="394.75" width="120" height="40" as="geometry"/>
                </mxCell>
                <mxCell id="qeABhqFJyIhbuZ9aIN4r-77" value="" style="edgeStyle=none;shape=link;html=1;" parent="vE5BKZQ4KzmI6fFX7A4_-1" source="qeABhqFJyIhbuZ9aIN4r-81" target="qeABhqFJyIhbuZ9aIN4r-84" edge="1">
                    <mxGeometry relative="1" as="geometry"/>
                </mxCell>
                <mxCell id="qeABhqFJyIhbuZ9aIN4r-78" value="" style="edgeStyle=none;html=1;entryX=0;entryY=0.5;entryDx=0;entryDy=0;" parent="vE5BKZQ4KzmI6fFX7A4_-1" source="qeABhqFJyIhbuZ9aIN4r-81" target="qeABhqFJyIhbuZ9aIN4r-85" edge="1">
                    <mxGeometry relative="1" as="geometry">
                        <mxPoint x="963" y="470.61528497409336" as="targetPoint"/>
                    </mxGeometry>
                </mxCell>
                <mxCell id="qeABhqFJyIhbuZ9aIN4r-79" value="onclick" style="edgeLabel;html=1;align=center;verticalAlign=middle;resizable=0;points=[];" parent="qeABhqFJyIhbuZ9aIN4r-78" vertex="1" connectable="0">
                    <mxGeometry x="-0.5045" y="-2" relative="1" as="geometry">
                        <mxPoint x="16" y="-2" as="offset"/>
                    </mxGeometry>
                </mxCell>
                <mxCell id="qeABhqFJyIhbuZ9aIN4r-80" value="" style="edgeStyle=none;shape=link;html=1;" parent="vE5BKZQ4KzmI6fFX7A4_-1" source="qeABhqFJyIhbuZ9aIN4r-81" target="qeABhqFJyIhbuZ9aIN4r-88" edge="1">
                    <mxGeometry relative="1" as="geometry"/>
                </mxCell>
                <mxCell id="qeABhqFJyIhbuZ9aIN4r-81" value="Button&lt;br&gt;'Cancel'" style="whiteSpace=wrap;html=1;" parent="vE5BKZQ4KzmI6fFX7A4_-1" vertex="1">
                    <mxGeometry x="770" y="454.75" width="120" height="40" as="geometry"/>
                </mxCell>
                <mxCell id="qeABhqFJyIhbuZ9aIN4r-82" value="" style="edgeStyle=none;html=1;entryX=0;entryY=0.5;entryDx=0;entryDy=0;" parent="vE5BKZQ4KzmI6fFX7A4_-1" target="qeABhqFJyIhbuZ9aIN4r-87" edge="1">
                    <mxGeometry relative="1" as="geometry">
                        <mxPoint x="891" y="535.9935233160622" as="sourcePoint"/>
                        <mxPoint x="964" y="537.5064766839378" as="targetPoint"/>
                    </mxGeometry>
                </mxCell>
                <mxCell id="qeABhqFJyIhbuZ9aIN4r-83" value="onclick" style="edgeLabel;html=1;align=center;verticalAlign=middle;resizable=0;points=[];" parent="qeABhqFJyIhbuZ9aIN4r-82" vertex="1" connectable="0">
                    <mxGeometry x="-0.5325" y="2" relative="1" as="geometry">
                        <mxPoint x="14" as="offset"/>
                    </mxGeometry>
                </mxCell>
                <mxCell id="qeABhqFJyIhbuZ9aIN4r-84" value="Button&lt;br&gt;'Add'" style="whiteSpace=wrap;html=1;" parent="vE5BKZQ4KzmI6fFX7A4_-1" vertex="1">
                    <mxGeometry x="770" y="514.75" width="120" height="40" as="geometry"/>
                </mxCell>
                <mxCell id="qeABhqFJyIhbuZ9aIN4r-85" value="Hide Modal ()" style="shape=step;perimeter=stepPerimeter;whiteSpace=wrap;html=1;fixedSize=1;" parent="vE5BKZQ4KzmI6fFX7A4_-1" vertex="1">
                    <mxGeometry x="963" y="457.75" width="150" height="34" as="geometry"/>
                </mxCell>
                <mxCell id="qeABhqFJyIhbuZ9aIN4r-86" value="" style="edgeStyle=none;shape=link;html=1;" parent="vE5BKZQ4KzmI6fFX7A4_-1" source="qeABhqFJyIhbuZ9aIN4r-87" target="qeABhqFJyIhbuZ9aIN4r-94" edge="1">
                    <mxGeometry relative="1" as="geometry"/>
                </mxCell>
                <mxCell id="cMpotE2XoS0eWLGn44pn-2" value="" style="edgeStyle=none;shape=link;html=1;startArrow=classic;startFill=1;endArrow=classic;endFill=1;" edge="1" parent="vE5BKZQ4KzmI6fFX7A4_-1" source="qeABhqFJyIhbuZ9aIN4r-87" target="cMpotE2XoS0eWLGn44pn-0">
                    <mxGeometry relative="1" as="geometry"/>
                </mxCell>
                <mxCell id="qeABhqFJyIhbuZ9aIN4r-87" value="Create Book (input)" style="shape=step;perimeter=stepPerimeter;whiteSpace=wrap;html=1;fixedSize=1;" parent="vE5BKZQ4KzmI6fFX7A4_-1" vertex="1">
                    <mxGeometry x="963" y="517.75" width="150" height="34" as="geometry"/>
                </mxCell>
                <mxCell id="qeABhqFJyIhbuZ9aIN4r-88" value="Button &lt;br&gt;'Clear'" style="whiteSpace=wrap;html=1;" parent="vE5BKZQ4KzmI6fFX7A4_-1" vertex="1">
                    <mxGeometry x="770" y="394.75" width="120" height="40" as="geometry"/>
                </mxCell>
                <mxCell id="qeABhqFJyIhbuZ9aIN4r-89" value="" style="edgeStyle=none;html=1;entryX=0;entryY=0.5;entryDx=0;entryDy=0;" parent="vE5BKZQ4KzmI6fFX7A4_-1" target="qeABhqFJyIhbuZ9aIN4r-91" edge="1">
                    <mxGeometry relative="1" as="geometry">
                        <mxPoint x="889.7199999999998" y="414.75" as="sourcePoint"/>
                        <mxPoint x="963" y="410.61528497409336" as="targetPoint"/>
                    </mxGeometry>
                </mxCell>
                <mxCell id="qeABhqFJyIhbuZ9aIN4r-90" value="onclick" style="edgeLabel;html=1;align=center;verticalAlign=middle;resizable=0;points=[];" parent="qeABhqFJyIhbuZ9aIN4r-89" vertex="1" connectable="0">
                    <mxGeometry x="-0.5045" y="-2" relative="1" as="geometry">
                        <mxPoint x="16" y="-2" as="offset"/>
                    </mxGeometry>
                </mxCell>
                <mxCell id="qeABhqFJyIhbuZ9aIN4r-91" value="Reset Form ()" style="shape=step;perimeter=stepPerimeter;whiteSpace=wrap;html=1;fixedSize=1;" parent="vE5BKZQ4KzmI6fFX7A4_-1" vertex="1">
                    <mxGeometry x="963" y="397.75" width="150" height="34" as="geometry"/>
                </mxCell>
                <mxCell id="qeABhqFJyIhbuZ9aIN4r-92" value="" style="edgeStyle=none;shape=link;html=1;" parent="vE5BKZQ4KzmI6fFX7A4_-1" source="qeABhqFJyIhbuZ9aIN4r-94" target="qeABhqFJyIhbuZ9aIN4r-96" edge="1">
                    <mxGeometry relative="1" as="geometry"/>
                </mxCell>
                <mxCell id="qeABhqFJyIhbuZ9aIN4r-93" value="" style="edgeStyle=none;shape=link;html=1;" parent="vE5BKZQ4KzmI6fFX7A4_-1" source="qeABhqFJyIhbuZ9aIN4r-94" target="qeABhqFJyIhbuZ9aIN4r-97" edge="1">
                    <mxGeometry relative="1" as="geometry"/>
                </mxCell>
                <mxCell id="qeABhqFJyIhbuZ9aIN4r-94" value="dataAPI" style="shape=step;perimeter=stepPerimeter;whiteSpace=wrap;html=1;fixedSize=1;" parent="vE5BKZQ4KzmI6fFX7A4_-1" vertex="1">
                    <mxGeometry x="1114" y="517.75" width="106" height="34" as="geometry"/>
                </mxCell>
                <mxCell id="qeABhqFJyIhbuZ9aIN4r-95" value="" style="edgeStyle=none;shape=link;html=1;" parent="vE5BKZQ4KzmI6fFX7A4_-1" source="qeABhqFJyIhbuZ9aIN4r-96" target="qeABhqFJyIhbuZ9aIN4r-98" edge="1">
                    <mxGeometry relative="1" as="geometry"/>
                </mxCell>
                <mxCell id="qeABhqFJyIhbuZ9aIN4r-96" value="displayAPI" style="shape=step;perimeter=stepPerimeter;whiteSpace=wrap;html=1;fixedSize=1;" parent="vE5BKZQ4KzmI6fFX7A4_-1" vertex="1">
                    <mxGeometry x="1113" y="564.75" width="106" height="34" as="geometry"/>
                </mxCell>
                <mxCell id="qeABhqFJyIhbuZ9aIN4r-97" value="Create Book Data ()" style="shape=step;perimeter=stepPerimeter;whiteSpace=wrap;html=1;fixedSize=1;" parent="vE5BKZQ4KzmI6fFX7A4_-1" vertex="1">
                    <mxGeometry x="1220" y="517.75" width="170" height="34" as="geometry"/>
                </mxCell>
                <mxCell id="qeABhqFJyIhbuZ9aIN4r-98" value="Create Book Display ()" style="shape=step;perimeter=stepPerimeter;whiteSpace=wrap;html=1;fixedSize=1;" parent="vE5BKZQ4KzmI6fFX7A4_-1" vertex="1">
                    <mxGeometry x="1219" y="564.75" width="171" height="34" as="geometry"/>
                </mxCell>
                <mxCell id="qeABhqFJyIhbuZ9aIN4r-99" value="" style="edgeStyle=none;shape=link;html=1;exitX=0.5;exitY=1;exitDx=0;exitDy=0;" parent="vE5BKZQ4KzmI6fFX7A4_-1" source="qeABhqFJyIhbuZ9aIN4r-98" target="qeABhqFJyIhbuZ9aIN4r-100" edge="1">
                    <mxGeometry relative="1" as="geometry">
                        <mxPoint x="1167" y="604.75" as="sourcePoint"/>
                    </mxGeometry>
                </mxCell>
                <mxCell id="qeABhqFJyIhbuZ9aIN4r-100" value="Update Display&lt;br&gt;Container&amp;nbsp; ()" style="shape=step;perimeter=stepPerimeter;whiteSpace=wrap;html=1;fixedSize=1;" parent="vE5BKZQ4KzmI6fFX7A4_-1" vertex="1">
                    <mxGeometry x="1219" y="611.75" width="170" height="34" as="geometry"/>
                </mxCell>
                <mxCell id="qeABhqFJyIhbuZ9aIN4r-126" value="" style="edgeStyle=none;shape=link;html=1;fontSize=48;" parent="vE5BKZQ4KzmI6fFX7A4_-1" source="qeABhqFJyIhbuZ9aIN4r-102" target="qeABhqFJyIhbuZ9aIN4r-114" edge="1">
                    <mxGeometry relative="1" as="geometry"/>
                </mxCell>
                <mxCell id="qeABhqFJyIhbuZ9aIN4r-102" value="Action Buttons" style="whiteSpace=wrap;html=1;" parent="vE5BKZQ4KzmI6fFX7A4_-1" vertex="1">
                    <mxGeometry x="646" y="1020" width="120" height="40" as="geometry"/>
                </mxCell>
                <mxCell id="qeABhqFJyIhbuZ9aIN4r-104" value="" style="edgeStyle=none;shape=link;html=1;" parent="vE5BKZQ4KzmI6fFX7A4_-1" source="qeABhqFJyIhbuZ9aIN4r-108" target="qeABhqFJyIhbuZ9aIN4r-111" edge="1">
                    <mxGeometry relative="1" as="geometry"/>
                </mxCell>
                <mxCell id="qeABhqFJyIhbuZ9aIN4r-105" value="" style="edgeStyle=none;html=1;entryX=0;entryY=0.5;entryDx=0;entryDy=0;" parent="vE5BKZQ4KzmI6fFX7A4_-1" source="qeABhqFJyIhbuZ9aIN4r-108" target="qeABhqFJyIhbuZ9aIN4r-112" edge="1">
                    <mxGeometry relative="1" as="geometry">
                        <mxPoint x="973" y="1095.8652849740934" as="targetPoint"/>
                    </mxGeometry>
                </mxCell>
                <mxCell id="qeABhqFJyIhbuZ9aIN4r-106" value="onclick" style="edgeLabel;html=1;align=center;verticalAlign=middle;resizable=0;points=[];" parent="qeABhqFJyIhbuZ9aIN4r-105" vertex="1" connectable="0">
                    <mxGeometry x="-0.5045" y="-2" relative="1" as="geometry">
                        <mxPoint x="16" y="-2" as="offset"/>
                    </mxGeometry>
                </mxCell>
                <mxCell id="qeABhqFJyIhbuZ9aIN4r-107" value="" style="edgeStyle=none;shape=link;html=1;" parent="vE5BKZQ4KzmI6fFX7A4_-1" source="qeABhqFJyIhbuZ9aIN4r-108" target="qeABhqFJyIhbuZ9aIN4r-114" edge="1">
                    <mxGeometry relative="1" as="geometry"/>
                </mxCell>
                <mxCell id="qeABhqFJyIhbuZ9aIN4r-108" value="Button&lt;br&gt;'Cancel'" style="whiteSpace=wrap;html=1;" parent="vE5BKZQ4KzmI6fFX7A4_-1" vertex="1">
                    <mxGeometry x="780" y="1080" width="120" height="40" as="geometry"/>
                </mxCell>
                <mxCell id="qeABhqFJyIhbuZ9aIN4r-109" value="" style="edgeStyle=none;html=1;entryX=0;entryY=0.5;entryDx=0;entryDy=0;" parent="vE5BKZQ4KzmI6fFX7A4_-1" target="qeABhqFJyIhbuZ9aIN4r-113" edge="1">
                    <mxGeometry relative="1" as="geometry">
                        <mxPoint x="901" y="1161.2435233160622" as="sourcePoint"/>
                        <mxPoint x="974" y="1162.7564766839378" as="targetPoint"/>
                    </mxGeometry>
                </mxCell>
                <mxCell id="qeABhqFJyIhbuZ9aIN4r-110" value="onclick" style="edgeLabel;html=1;align=center;verticalAlign=middle;resizable=0;points=[];" parent="qeABhqFJyIhbuZ9aIN4r-109" vertex="1" connectable="0">
                    <mxGeometry x="-0.5325" y="2" relative="1" as="geometry">
                        <mxPoint x="14" as="offset"/>
                    </mxGeometry>
                </mxCell>
                <mxCell id="qeABhqFJyIhbuZ9aIN4r-111" value="Button&lt;br&gt;'Confirm'" style="whiteSpace=wrap;html=1;" parent="vE5BKZQ4KzmI6fFX7A4_-1" vertex="1">
                    <mxGeometry x="780" y="1140" width="120" height="40" as="geometry"/>
                </mxCell>
                <mxCell id="qeABhqFJyIhbuZ9aIN4r-112" value="Hide Modal ()" style="shape=step;perimeter=stepPerimeter;whiteSpace=wrap;html=1;fixedSize=1;" parent="vE5BKZQ4KzmI6fFX7A4_-1" vertex="1">
                    <mxGeometry x="973" y="1083" width="150" height="34" as="geometry"/>
                </mxCell>
                <mxCell id="cMpotE2XoS0eWLGn44pn-4" value="" style="edgeStyle=none;shape=link;html=1;startArrow=classic;startFill=1;endArrow=classic;endFill=1;" edge="1" parent="vE5BKZQ4KzmI6fFX7A4_-1" source="qeABhqFJyIhbuZ9aIN4r-113" target="cMpotE2XoS0eWLGn44pn-3">
                    <mxGeometry relative="1" as="geometry"/>
                </mxCell>
                <mxCell id="qeABhqFJyIhbuZ9aIN4r-113" value="Edit Book (id)" style="shape=step;perimeter=stepPerimeter;whiteSpace=wrap;html=1;fixedSize=1;" parent="vE5BKZQ4KzmI6fFX7A4_-1" vertex="1">
                    <mxGeometry x="973" y="1143" width="150" height="34" as="geometry"/>
                </mxCell>
                <mxCell id="qeABhqFJyIhbuZ9aIN4r-114" value="Button &lt;br&gt;'Clear'" style="whiteSpace=wrap;html=1;" parent="vE5BKZQ4KzmI6fFX7A4_-1" vertex="1">
                    <mxGeometry x="780" y="1020" width="120" height="40" as="geometry"/>
                </mxCell>
                <mxCell id="qeABhqFJyIhbuZ9aIN4r-115" value="" style="edgeStyle=none;html=1;entryX=0;entryY=0.5;entryDx=0;entryDy=0;" parent="vE5BKZQ4KzmI6fFX7A4_-1" target="qeABhqFJyIhbuZ9aIN4r-117" edge="1">
                    <mxGeometry relative="1" as="geometry">
                        <mxPoint x="899.7199999999998" y="1040" as="sourcePoint"/>
                        <mxPoint x="973" y="1035.8652849740934" as="targetPoint"/>
                    </mxGeometry>
                </mxCell>
                <mxCell id="qeABhqFJyIhbuZ9aIN4r-116" value="onclick" style="edgeLabel;html=1;align=center;verticalAlign=middle;resizable=0;points=[];" parent="qeABhqFJyIhbuZ9aIN4r-115" vertex="1" connectable="0">
                    <mxGeometry x="-0.5045" y="-2" relative="1" as="geometry">
                        <mxPoint x="16" y="-2" as="offset"/>
                    </mxGeometry>
                </mxCell>
                <mxCell id="qeABhqFJyIhbuZ9aIN4r-117" value="Reset&amp;nbsp; Form ()" style="shape=step;perimeter=stepPerimeter;whiteSpace=wrap;html=1;fixedSize=1;" parent="vE5BKZQ4KzmI6fFX7A4_-1" vertex="1">
                    <mxGeometry x="973" y="1023" width="150" height="34" as="geometry"/>
                </mxCell>
                <mxCell id="qeABhqFJyIhbuZ9aIN4r-118" value="" style="edgeStyle=none;shape=link;html=1;exitX=1;exitY=0.5;exitDx=0;exitDy=0;" parent="vE5BKZQ4KzmI6fFX7A4_-1" source="qeABhqFJyIhbuZ9aIN4r-113" target="qeABhqFJyIhbuZ9aIN4r-121" edge="1">
                    <mxGeometry relative="1" as="geometry">
                        <mxPoint x="1124" y="1160" as="sourcePoint"/>
                    </mxGeometry>
                </mxCell>
                <mxCell id="qeABhqFJyIhbuZ9aIN4r-119" value="" style="edgeStyle=none;shape=link;html=1;" parent="vE5BKZQ4KzmI6fFX7A4_-1" source="qeABhqFJyIhbuZ9aIN4r-121" target="qeABhqFJyIhbuZ9aIN4r-123" edge="1">
                    <mxGeometry relative="1" as="geometry"/>
                </mxCell>
                <mxCell id="qeABhqFJyIhbuZ9aIN4r-120" value="" style="edgeStyle=none;shape=link;html=1;entryX=0;entryY=0.5;entryDx=0;entryDy=0;" parent="vE5BKZQ4KzmI6fFX7A4_-1" source="qeABhqFJyIhbuZ9aIN4r-121" target="qeABhqFJyIhbuZ9aIN4r-124" edge="1">
                    <mxGeometry relative="1" as="geometry">
                        <mxPoint x="1251" y="1160" as="targetPoint"/>
                    </mxGeometry>
                </mxCell>
                <mxCell id="qeABhqFJyIhbuZ9aIN4r-121" value="dataAPI" style="shape=step;perimeter=stepPerimeter;whiteSpace=wrap;html=1;fixedSize=1;" parent="vE5BKZQ4KzmI6fFX7A4_-1" vertex="1">
                    <mxGeometry x="1125" y="1143" width="106" height="34" as="geometry"/>
                </mxCell>
                <mxCell id="qeABhqFJyIhbuZ9aIN4r-122" value="" style="edgeStyle=none;shape=link;html=1;entryX=0;entryY=0.5;entryDx=0;entryDy=0;" parent="vE5BKZQ4KzmI6fFX7A4_-1" source="qeABhqFJyIhbuZ9aIN4r-123" target="qeABhqFJyIhbuZ9aIN4r-125" edge="1">
                    <mxGeometry relative="1" as="geometry">
                        <mxPoint x="1250" y="1207" as="targetPoint"/>
                    </mxGeometry>
                </mxCell>
                <mxCell id="qeABhqFJyIhbuZ9aIN4r-123" value="displayAPI" style="shape=step;perimeter=stepPerimeter;whiteSpace=wrap;html=1;fixedSize=1;" parent="vE5BKZQ4KzmI6fFX7A4_-1" vertex="1">
                    <mxGeometry x="1124" y="1190" width="106" height="34" as="geometry"/>
                </mxCell>
                <mxCell id="qeABhqFJyIhbuZ9aIN4r-124" value="Update Book Data ()" style="shape=step;perimeter=stepPerimeter;whiteSpace=wrap;html=1;fixedSize=1;" parent="vE5BKZQ4KzmI6fFX7A4_-1" vertex="1">
                    <mxGeometry x="1232" y="1143" width="170" height="34" as="geometry"/>
                </mxCell>
                <mxCell id="qeABhqFJyIhbuZ9aIN4r-125" value="Update Book Display ()" style="shape=step;perimeter=stepPerimeter;whiteSpace=wrap;html=1;fixedSize=1;" parent="vE5BKZQ4KzmI6fFX7A4_-1" vertex="1">
                    <mxGeometry x="1231" y="1190" width="171" height="34" as="geometry"/>
                </mxCell>
                <mxCell id="cMpotE2XoS0eWLGn44pn-0" value="Hide Modal ()" style="shape=step;perimeter=stepPerimeter;whiteSpace=wrap;html=1;fixedSize=1;" vertex="1" parent="vE5BKZQ4KzmI6fFX7A4_-1">
                    <mxGeometry x="963" y="567.5" width="150" height="34" as="geometry"/>
                </mxCell>
                <mxCell id="cMpotE2XoS0eWLGn44pn-3" value="Hide Modal ()" style="shape=step;perimeter=stepPerimeter;whiteSpace=wrap;html=1;fixedSize=1;" vertex="1" parent="vE5BKZQ4KzmI6fFX7A4_-1">
                    <mxGeometry x="973" y="1190" width="150" height="34" as="geometry"/>
                </mxCell>
            </root>
        </mxGraphModel>
    </diagram>
</mxfile>